<svg preserveAspectRatio="none" width="100%" height="100%" overflow="visible" style="display: block;" viewBox="0 0 16 18" fill="none" xmlns="http://www.w3.org/2000/svg">
<path id="Vector" d="M5.59472 16.9039V14.1437C5.59471 13.4443 6.12688 12.876 6.78605 12.8716H9.20641C9.86853 12.8716 10.4053 13.4411 10.4053 14.1437V16.8959C10.4053 17.5025 10.8665 17.9955 11.4383 18H13.0895C13.8607 18.0021 14.6011 17.6785 15.1471 17.1006C15.6931 16.5227 16 15.7381 16 14.9197V7.07925C16 6.41824 15.7238 5.79123 15.246 5.36714L9.63619 0.606841C8.65559 -0.225789 7.25505 -0.198892 6.30349 0.670845L0.814326 5.36714C0.313887 5.77873 0.0147809 6.4076 0 7.07925V14.9117C0 16.6173 1.30306 18 2.91046 18H4.52403C4.7993 18.0021 5.06399 17.8875 5.25935 17.6818C5.4547 17.476 5.56457 17.196 5.56456 16.9039H5.59472Z" fill="var(--fill-0, white)"/>
</svg>
